<?xml version="1.0" encoding="UTF-8"?>
<!-- Generator: Adobe Illustrator 26.0.1, SVG Export Plug-In . SVG Version: 6.00 Build 0)  -->
<svg xmlns="http://www.w3.org/2000/svg" xmlns:xlink="http://www.w3.org/1999/xlink" version="1.1" id="Capa_1" x="0px" y="0px" viewBox="0 0 512 512" style="enable-background:new 0 0 512 512;" xml:space="preserve" width="512" height="512">
<path d="M479.247,210.483c-45.642,0-87.939-14.602-122.463-39.382v178.883c0,89.337-72.679,162.015-162.016,162.015  c-34.524,0-66.534-10.888-92.85-29.362c-41.781-29.333-69.166-77.839-69.166-132.653c0-89.337,72.679-162.019,162.016-162.019  c7.414,0,14.681,0.61,21.833,1.583v20.851v69.012c-6.911-2.165-14.217-3.422-21.833-3.422c-40.798,0-73.993,33.195-73.993,73.996  c0,28.41,16.118,53.096,39.67,65.491c10.269,5.404,21.935,8.501,34.323,8.501c39.858,0,72.371-31.705,73.851-71.208L268.761,0  h88.023c0,7.631,0.736,15.088,2.078,22.335c6.209,33.539,26.115,62.312,53.695,80.293c19.205,12.523,42.103,19.832,66.689,19.832  V210.483z"/>















</svg>
